<svg xmlns="http://www.w3.org/2000/svg" viewBox="0 0 100.78021 60.601816" height="229.04623" width="380.90155" style=""><g transform="translate(5.95 -236.3)" stroke-width=".82020837"><path d="M-5.9233991 237.79811s24.4334231-1.6523 40.3084241-.32938c15.875 1.32292-21.557841-1.41152-22.198074-.25384C10.583334 240.11456.36721104 278.73286.36721104 278.73286" fill="none" stroke="#000" class="xhAhXUpW_0"></path><a><path d="M7.7511473 259.52383c3.0543757 1.0435 9.9891117-9.25894 11.0235247-19.40927 3.698298-3.80988-7.217697 22.22977-4.496339 18.14767.267269-.40091 1.268111-7.20335 4.242501-8.90068 1.001454-.57148 2.572031-.35127 3.434211.41433 2.628316 2.33389-5.717312 11.97346 2.859058 9.26042-.523423-2.8557.237829-7.70225 3.829554-8.99592 1.946617-.70114 3.337823.36217 3.960326 1.20072 1.75893 2.36939-1.240314 9.15477-5.901397 8.49104-4.562251-.64965-.614787-7.2655-.614787-7.2655 3.974086 1.70016 7.133278-2.95447 10.01843-2.97144.696735.0276-3.03331 10.46312-3.03331 10.46312 2.645834-.00001.801809-11.50535 6.093476-10.18244 2.539056 1.32292.908585 4.11584.908585 4.11584-.656338 1.94175.945023-3.38805.507677-2.1113-.355014 1.0364 1.622883-4.08835 4.516719-1.22958 2.785089 2.75134-3.153513 5.57236-2.926535 9.95547.181023 3.49567 6.822348-.00063 9.420914-1.87089 2.885564-2.07682 6.421422-5.88947 5.291667-9.26042-3.201569-9.55281-17.864747-10.12601-27.781251-11.90625-5.30262-.95194-15.875004-1.32292-16.14227.80181-.369189 2.935-7.7245739 24.59389-10.0226071 39.43298-.089295.5766.1289022.84587.5417968.973 2.2238711.68475 3.9513913-2.64905 5.8980888-5.69465.9174435-1.43534 2.8670725-2.17543 5.4939605-3.29815 0 0 1.083018-2.47711-1.353355-1.43339-4.4212915 1.89403-4.4904653 9.25333-1.016077 9.67891 5.251735 1.42102 5.442167-11.5349 6.605842-10.58444l-3.196325 9.03067c-1.334085 3.76923 1.736982-7.15475 6.037518-8.18733 5.67953-2.28816-3.12329 9.52134.324627 10.31719 3.704055.85497 5.088505-12.62069 5.709763-11.36335.488806.98927-3.799257 10.32045-3.985942 10.82881-.186685.50836 3.006573-8.61981 6.868243-9.96645 5.746293-2.00384-3.75827 9.24196-.25366 9.96645 2.459149.50836 3.702381-7.31564 5.973272-10.71696.454625-.68093-4.557242 9.80999-1.09594 10.58333 2.873483.64199 4.727725-12.66951 5.386481-10.93488.469672 1.23674-4.711659 11.24551-3.835914 10.25396.581816-.65876 3.033306-9.26042 7.616509-9.90241 4.426506-.62004-3.239114 8.68965-.962306 10.44969 1.529342 1.18223 10.75621-1.34159 4.429574-.43475-6.095517.87372-.138839-10.26334 5.033032-10.19987 3.607122.33433-2.004142 7.02523-2.313484 10.59501-1.004314 6.40092-.07209 18.48912-4.356223 18.82772-4.603781.0311-5.676838-8.95386-3.96875-13.22917 2.191692-4.88084 7.647045-3.17491 10.396648-6.10622 5.894393-6.28393 9.260414-23.8125 11.638982-23.07853 0 0-8.99315 14.82225-8.993149 23.07853 0 2.64583 2.645832-5.29168 5.291665-9.26043 2.290653-2.7953 5.079922-1.09299 5.933112.32269 1.694326 2.81137-2.076386 9.2678-5.343143 8.9471-5.438061-.53386-1.114451-8.48696-1.114451-8.48696 3.899611 2.56481 12.246107-4.54195 11.976108-1.42481 0 0-2.191209 9.9024-3.714912 10.04879 0 0 1.978327-8.76482 6.81537-10.72972 4.837042-1.9649-3.70787 10.01343-.187355 10.86335 2.72067.65683 1.272105-6.14677 3.701481-7.53659 4.489766-2.56854 14.786282 5.585 15.474092 1.16242-9.727799-11.10376-51.084067-9.28939-56.39966-8.90708-6.244809.44915 7.492035 2.97478-7.31068 2.49551-14.134606-.45763-22.373144-.73488-28.0382946-2.04636" fill="none" stroke="#000" class="xhAhXUpW_1"></path></a></g><style>.xhAhXUpW_0{stroke-dasharray:114 116;stroke-dashoffset:115;animation:xhAhXUpW_draw_0 7200ms linear 0ms infinite,xhAhXUpW_fade 7200ms linear 0ms infinite;}.xhAhXUpW_1{stroke-dasharray:836 838;stroke-dashoffset:837;animation:xhAhXUpW_draw_1 7200ms linear 0ms infinite,xhAhXUpW_fade 7200ms linear 0ms infinite;}@keyframes xhAhXUpW_draw{100%{stroke-dashoffset:0;}}@keyframes xhAhXUpW_fade{0%{stroke-opacity:1;}94.44444444444444%{stroke-opacity:1;}100%{stroke-opacity:0;}}@keyframes xhAhXUpW_draw_0{11.11111111111111%{stroke-dashoffset: 115}16.14437441643324%{ stroke-dashoffset: 0;}100%{ stroke-dashoffset: 0;}}@keyframes xhAhXUpW_draw_1{16.14437441643324%{stroke-dashoffset: 837}52.77777777777778%{ stroke-dashoffset: 0;}100%{ stroke-dashoffset: 0;}}</style></svg>